<svg xmlns="http://www.w3.org/2000/svg" xmlns:xlink="http://www.w3.org/1999/xlink">
    <symbol id="scan" viewBox="0 0 20 20" fill="none">
        <path fill="currentColor" fill-rule="evenodd"
            d="M4.167 6.667a.833.833 0 0 1-1.667 0V4.936c0-.633.068-.988.266-1.356.186-.35.465-.628.814-.814.368-.198.722-.266 1.356-.266h1.73a.833.833 0 0 1 0 1.667h-1.73c-.383 0-.475.018-.57.068a.303.303 0 0 0-.13.13c-.05.095-.07.188-.07.57v1.732Zm2.5 9.166a.833.833 0 1 1 0 1.667H4.936c-.633 0-.988-.068-1.356-.266a1.97 1.97 0 0 1-.814-.814c-.198-.368-.266-.722-.266-1.356v-1.73a.833.833 0 0 1 1.667 0v1.73c0 .383.018.475.068.57a.31.31 0 0 0 .13.131c.095.05.188.068.57.068h1.732Zm5.833-12.5a.833.833 0 0 0 .833.834h1.731c.383 0 .475.018.57.068.059.032.1.072.131.13.05.095.068.188.068.57v1.732a.833.833 0 1 0 1.667 0V4.936c0-.633-.068-.988-.266-1.356a1.97 1.97 0 0 0-.814-.814c-.368-.198-.722-.266-1.356-.266h-1.73a.833.833 0 0 0-.834.833Zm3.333 10a.833.833 0 0 1 1.667 0v1.731c0 .633-.068.988-.266 1.356a1.97 1.97 0 0 1-.814.814c-.368.198-.722.266-1.356.266h-1.73a.833.833 0 1 1 0-1.667h1.73c.383 0 .475-.018.57-.068a.302.302 0 0 0 .131-.13c.05-.095.068-.188.068-.57v-1.732ZM2.5 9.167a.833.833 0 1 0 0 1.666h15a.833.833 0 1 0 0-1.666h-15Z"
            clip-rule="evenodd" />
    </symbol>
    <symbol id='notification' fill="none" viewBox="0 0 50 50">
  <path stroke="#fff" stroke-linecap="round" stroke-linejoin="round" stroke-width="2" d="M18.75 35.417V37.5a6.25 6.25 0 1 0 12.5 0v-2.083m-12.5 0H8.334S12.5 27.083 12.5 18.75c0-6.808 5.692-12.5 12.5-12.5s12.5 5.692 12.5 12.5c0 6.25 4.167 16.667 4.167 16.667H31.25m-12.5 0h12.5"/>
  </symbol>
</svg>

