<svg xmlns="http://www.w3.org/2000/svg" xmlns:xlink="http://www.w3.org/1999/xlink">
    <symbol id="scan" viewBox="0 0 20 20" fill="none">
        <path fill="currentColor" fill-rule="evenodd"
            d="M4.167 6.667a.833.833 0 0 1-1.667 0V4.936c0-.633.068-.988.266-1.356.186-.35.465-.628.814-.814.368-.198.722-.266 1.356-.266h1.73a.833.833 0 0 1 0 1.667h-1.73c-.383 0-.475.018-.57.068a.303.303 0 0 0-.13.13c-.05.095-.07.188-.07.57v1.732Zm2.5 9.166a.833.833 0 1 1 0 1.667H4.936c-.633 0-.988-.068-1.356-.266a1.97 1.97 0 0 1-.814-.814c-.198-.368-.266-.722-.266-1.356v-1.73a.833.833 0 0 1 1.667 0v1.73c0 .383.018.475.068.57a.31.31 0 0 0 .13.131c.095.05.188.068.57.068h1.732Zm5.833-12.5a.833.833 0 0 0 .833.834h1.731c.383 0 .475.018.57.068.059.032.1.072.131.13.05.095.068.188.068.57v1.732a.833.833 0 1 0 1.667 0V4.936c0-.633-.068-.988-.266-1.356a1.97 1.97 0 0 0-.814-.814c-.368-.198-.722-.266-1.356-.266h-1.73a.833.833 0 0 0-.834.833Zm3.333 10a.833.833 0 0 1 1.667 0v1.731c0 .633-.068.988-.266 1.356a1.97 1.97 0 0 1-.814.814c-.368.198-.722.266-1.356.266h-1.73a.833.833 0 1 1 0-1.667h1.73c.383 0 .475-.018.57-.068a.302.302 0 0 0 .131-.13c.05-.095.068-.188.068-.57v-1.732ZM2.5 9.167a.833.833 0 1 0 0 1.666h15a.833.833 0 1 0 0-1.666h-15Z"
            clip-rule="evenodd" />
    </symbol>
    <symbol id='notification' fill="none" viewBox="0 0 50 50">
  <path stroke="#fff" stroke-linecap="round" stroke-linejoin="round" stroke-width="2" d="M18.75 35.417V37.5a6.25 6.25 0 1 0 12.5 0v-2.083m-12.5 0H8.334S12.5 27.083 12.5 18.75c0-6.808 5.692-12.5 12.5-12.5s12.5 5.692 12.5 12.5c0 6.25 4.167 16.667 4.167 16.667H31.25m-12.5 0h12.5"/>
  </symbol>
  <symbol id='message' fill="none" viewBox="0 0 50 50">
  <path stroke="#fff" stroke-linecap="round" stroke-linejoin="round" stroke-width="2" d="m43.75 43.75-11.875-3.958s-2.532 1.875-7.917 1.875c-9.78 0-17.708-7.929-17.708-17.709S14.178 6.25 23.958 6.25c9.78 0 17.709 7.928 17.709 17.708 0 5.209-1.875 7.917-1.875 7.917L43.75 43.75Z"/>
  </symbol>
  <symbol  id = 'profile' fill="none" viewBox="0 0 50 50">
  <path stroke="#fff" stroke-linecap="round" stroke-linejoin="round" stroke-width="2" d="M37.5 38.976c0-3.375-2.441-7.726-6.25-7.726h-12.5c-3.809 0-6.25 4.351-6.25 7.726M6.25 25C6.25 14.645 14.645 6.25 25 6.25S43.75 14.645 43.75 25 35.355 43.75 25 43.75 6.25 35.355 6.25 25Zm25-6.25a6.25 6.25 0 1 1-12.5 0 6.25 6.25 0 0 1 12.5 0Z"/>
  </symbol>
<symbol id='scroll_left' fill="none" viewBox="0 0 60 60">
  <path stroke="#fff" stroke-linecap="round" stroke-linejoin="round" stroke-width="2" d="m37.5 10-20 20 20 20"/>
  <rect width="60" height="60" fill="#D9D9D9" opacity=".25" rx="20"/>
</symbol>
<symbol id='scroll_right' fill="none" viewBox="0 0 60 60">
  <path stroke="#fff" stroke-linecap="round" stroke-linejoin="round" stroke-width="2" d="m22.5 50 20-20-20-20"/>
  <rect width="60" height="60" fill="#D9D9D9" opacity=".25" rx="20"/>
</symbol>
<symbol id='hamburger-menu' fill="none" viewBox="0 0 50 50">
  <path stroke="#fff" stroke-linecap="round" stroke-linejoin="round" stroke-width="2" d="M8.333 37.5h33.334M8.333 25h33.334M8.333 12.5h33.334"/>
  </symbol>
  <symbol id='github' fill = 'none' viewBox = '0 0 48 48'>
    <path fill="#fff" fill-rule="evenodd" d="M24.02 0C10.738 0 0 10.817 0 24.198 0 34.895 6.88 43.95 16.424 47.154c1.193.241 1.63-.52 1.63-1.161 0-.561-.039-2.484-.039-4.488-6.682 1.443-8.073-2.884-8.073-2.884-1.074-2.805-2.665-3.525-2.665-3.525-2.187-1.483.16-1.483.16-1.483 2.425.16 3.698 2.484 3.698 2.484 2.147 3.686 5.607 2.644 7 2.003.198-1.562.834-2.644 1.51-3.245-5.329-.56-10.936-2.644-10.936-11.939 0-2.644.954-4.807 2.466-6.49-.239-.6-1.074-3.085.239-6.41 0 0 2.028-.641 6.6 2.484 1.959-.53 3.978-.8 6.006-.802 2.028 0 4.095.281 6.005.802 4.573-3.125 6.601-2.484 6.601-2.484 1.313 3.325.477 5.81.239 6.41 1.55 1.683 2.465 3.846 2.465 6.49 0 9.295-5.607 11.338-10.976 11.94.876.76 1.63 2.202 1.63 4.486 0 3.245-.039 5.85-.039 6.65 0 .642.438 1.403 1.63 1.163C41.12 43.949 48 34.895 48 24.198 48.04 10.817 37.262 0 24.02 0Z" clip-rule="evenodd"/>
  </symbol>
  <symbol id='telegram' fill='none' viewbox='0 0 48 48'>
  <path fill="#fff" fill-rule="evenodd" d="M48 24c0 13.255-10.745 24-24 24S0 37.255 0 24 10.745 0 24 0s24 10.745 24 24Zm-23.14-6.282c-2.334.97-7 2.98-13.996 6.029-1.136.451-1.731.893-1.786 1.326-.091.73.823 1.018 2.069 1.41.17.052.345.108.525.166 1.225.398 2.874.864 3.73.883.778.017 1.646-.304 2.603-.961 6.537-4.413 9.912-6.643 10.124-6.692.15-.033.356-.076.496.049.14.124.127.36.112.424-.09.386-3.68 3.724-5.539 5.452-.579.538-.99.92-1.074 1.007-.188.196-.38.38-.564.558-1.138 1.098-1.992 1.92.047 3.265.98.645 1.765 1.18 2.547 1.712.854.582 1.707 1.163 2.81 1.885.28.184.549.376.81.562.994.709 1.887 1.346 2.991 1.244.642-.059 1.304-.662 1.64-2.46.795-4.25 2.358-13.46 2.72-17.255a4.228 4.228 0 0 0-.04-.945c-.033-.187-.1-.453-.342-.65-.288-.233-.732-.282-.93-.279-.903.016-2.288.498-8.953 3.27Z" clip-rule="evenodd"/>
  </symbol>
  <symbol id='cross' fill="none" viewBox="0 0 50 50">
    <path stroke="#fff" stroke-linecap="round" stroke-linejoin="round" stroke-width="2" d="M39.584 10.417 10.417 39.583m0-29.166 29.167 29.166"/>
  </symbol>
  <symbol id='arrow-left' fill="none" viewBox="0 0 50 50">
   <path stroke="#fff" stroke-linecap="round" stroke-linejoin="round" stroke-width="2" d="M8.333 25h33.334M8.333 25l12.5-12.5M8.333 25l12.5 12.5"/>
  </symbol>

</svg>


