<svg xmlns="http://www.w3.org/2000/svg" xmlns:xlink="http://www.w3.org/1999/xlink">
    <symbol id="scan" viewBox="0 0 20 20" fill="none">
        <path fill="currentColor" fill-rule="evenodd"
            d="M4.167 6.667a.833.833 0 0 1-1.667 0V4.936c0-.633.068-.988.266-1.356.186-.35.465-.628.814-.814.368-.198.722-.266 1.356-.266h1.73a.833.833 0 0 1 0 1.667h-1.73c-.383 0-.475.018-.57.068a.303.303 0 0 0-.13.13c-.05.095-.07.188-.07.57v1.732Zm2.5 9.166a.833.833 0 1 1 0 1.667H4.936c-.633 0-.988-.068-1.356-.266a1.97 1.97 0 0 1-.814-.814c-.198-.368-.266-.722-.266-1.356v-1.73a.833.833 0 0 1 1.667 0v1.73c0 .383.018.475.068.57a.31.31 0 0 0 .13.131c.095.05.188.068.57.068h1.732Zm5.833-12.5a.833.833 0 0 0 .833.834h1.731c.383 0 .475.018.57.068.059.032.1.072.131.13.05.095.068.188.068.57v1.732a.833.833 0 1 0 1.667 0V4.936c0-.633-.068-.988-.266-1.356a1.97 1.97 0 0 0-.814-.814c-.368-.198-.722-.266-1.356-.266h-1.73a.833.833 0 0 0-.834.833Zm3.333 10a.833.833 0 0 1 1.667 0v1.731c0 .633-.068.988-.266 1.356a1.97 1.97 0 0 1-.814.814c-.368.198-.722.266-1.356.266h-1.73a.833.833 0 1 1 0-1.667h1.73c.383 0 .475-.018.57-.068a.302.302 0 0 0 .131-.13c.05-.095.068-.188.068-.57v-1.732ZM2.5 9.167a.833.833 0 1 0 0 1.666h15a.833.833 0 1 0 0-1.666h-15Z"
            clip-rule="evenodd" />
    </symbol>
    <symbol id='notification' fill="none" viewBox="0 0 50 50">
  <path stroke="#fff" stroke-linecap="round" stroke-linejoin="round" stroke-width="2" d="M18.75 35.417V37.5a6.25 6.25 0 1 0 12.5 0v-2.083m-12.5 0H8.334S12.5 27.083 12.5 18.75c0-6.808 5.692-12.5 12.5-12.5s12.5 5.692 12.5 12.5c0 6.25 4.167 16.667 4.167 16.667H31.25m-12.5 0h12.5"/>
  </symbol>
  <symbol id='message' fill="none" viewBox="0 0 50 50">
  <path stroke="#fff" stroke-linecap="round" stroke-linejoin="round" stroke-width="2" d="m43.75 43.75-11.875-3.958s-2.532 1.875-7.917 1.875c-9.78 0-17.708-7.929-17.708-17.709S14.178 6.25 23.958 6.25c9.78 0 17.709 7.928 17.709 17.708 0 5.209-1.875 7.917-1.875 7.917L43.75 43.75Z"/>
  </symbol>
  <symbol  id = 'profile' fill="none" viewBox="0 0 50 50">
  <path stroke="#fff" stroke-linecap="round" stroke-linejoin="round" stroke-width="2" d="M37.5 38.976c0-3.375-2.441-7.726-6.25-7.726h-12.5c-3.809 0-6.25 4.351-6.25 7.726M6.25 25C6.25 14.645 14.645 6.25 25 6.25S43.75 14.645 43.75 25 35.355 43.75 25 43.75 6.25 35.355 6.25 25Zm25-6.25a6.25 6.25 0 1 1-12.5 0 6.25 6.25 0 0 1 12.5 0Z"/>
  </symbol>
<symbol id='scroll_left' fill="none" viewBox="0 0 60 60">
  <path stroke="#fff" stroke-linecap="round" stroke-linejoin="round" stroke-width="2" d="m37.5 10-20 20 20 20"/>
  <rect width="60" height="60" fill="#D9D9D9" opacity=".25" rx="20"/>
</symbol>
<symbol id='scroll_right' fill="none" viewBox="0 0 60 60">
  <path stroke="#fff" stroke-linecap="round" stroke-linejoin="round" stroke-width="2" d="m22.5 50 20-20-20-20"/>
  <rect width="60" height="60" fill="#D9D9D9" opacity=".25" rx="20"/>
</symbol>

</svg>

